<?xml version="1.0" encoding="utf-8"?>
<!-- Uploaded to: SVG Repo, www.svgrepo.com, Generator: SVG Repo Mixer Tools -->
<svg fill="#000000" width="800px" height="800px" viewBox="0 0 32 32" version="1.1" xmlns="http://www.w3.org/2000/svg">
<title>print</title>
<path d="M30 14.25h-3.25v-8.25c0-0 0-0.001 0-0.001 0-0.206-0.084-0.393-0.219-0.529v0l-4-4c-0.136-0.136-0.324-0.22-0.531-0.22-0 0-0 0-0 0h-17c-0.414 0-0.75 0.336-0.75 0.75v0 12.25h-2.25c-0.414 0-0.75 0.336-0.75 0.75v0 9c0 0.414 0.336 0.75 0.75 0.75s0.75-0.336 0.75-0.75v0-8.25h26.5v8.25c0 0.414 0.336 0.75 0.75 0.75s0.75-0.336 0.75-0.75v0-9c-0-0.414-0.336-0.75-0.75-0.75v0zM5.75 2.75h15.939l3.561 3.561v7.939h-19.5zM26 21.25h-20c-0.414 0-0.75 0.336-0.75 0.75v0 8c0 0.414 0.336 0.75 0.75 0.75h20c0.414-0 0.75-0.336 0.75-0.75v0-8c-0-0.414-0.336-0.75-0.75-0.75v0zM25.25 29.25h-18.5v-6.5h18.5zM26.279 19.199c0.178-0.099 0.322-0.242 0.417-0.415l0.003-0.005c0.027-0.067 0.043-0.145 0.043-0.227 0-0.018-0.001-0.037-0.002-0.054l0 0.002c-0.004-0.21-0.087-0.399-0.221-0.54l0 0c-0.142-0.122-0.327-0.196-0.53-0.196s-0.389 0.074-0.531 0.196l0.001-0.001c-0.122 0.145-0.197 0.334-0.199 0.54v0c-0.001 0.011-0.001 0.024-0.001 0.037 0 0.189 0.077 0.359 0.2 0.483v0c0.132 0.136 0.317 0.221 0.521 0.221 0.007 0 0.014-0 0.021-0l-0.001 0c0.016 0.001 0.034 0.002 0.052 0.002 0.082 0 0.16-0.016 0.231-0.045l-0.004 0.001z"></path>
</svg>